# xmcd CD database file
#
# Track frame offsets:
#	180
#	10852
#	23127
#	32403
#	44524
#	54696
#	62185
#	71532
#	83042
#	95919
#	106071
#	117434
#	128259
#	138252
#	147934
#	157416
#
# Disc length: 2226 seconds
#
# Revision: 3
# Processed by: cddbd v1.5.2PL0 Copyright (c) Steve Scherf et al.
# Submitted via: CDex 1.70beta2
#
DISCID=db08b010
DTITLE=Best of Rock and Roll - CD2
DYEAR=1999
DGENRE=Rock'n'Roll
TTITLE0=Chubby Checker - Let's Twist Again
TTITLE1=Bill Haley - See You Later Aligator
TTITLE2=The Starlighters - Peppermint Twist
TTITLE3=Frankie Ford - Sea Cruises
TTITLE4=The Crystals - Da Doo Ron Ron
TTITLE5=Fats Domino - Kansas City
TTITLE6=Little Richard - Long Tall Sally
TTITLE7=The Drifters - Sweet For My Sweet
TTITLE8=Jerry Lee Lewis - Whole Lotta Shakin' Going On
TTITLE9=Carl Perkins - Blue Suede Shoes
TTITLE10=Bobby Freeman - Do You Wanna Dance
TTITLE11=Little Richard - Lucille
TTITLE12=The Champs - Tequilla
TTITLE13=Chris Montez - Let's Dance
TTITLE14=The Ventures - Walk Don't Run
TTITLE15=The Surfaris - Wipe Out
EXTD=YEAR: 1999
EXTT0=
EXTT1=
EXTT2=
EXTT3=
EXTT4=
EXTT5=
EXTT6=
EXTT7=
EXTT8=
EXTT9=
EXTT10=
EXTT11=
EXTT12=
EXTT13=
EXTT14=
EXTT15=
PLAYORDER=
